<svg xmlns="http://www.w3.org/2000/svg" width="1100" height="430" viewBox="0 0 1100 430">
<defs><linearGradient id="b" x1="0" x2="1"><stop offset="0" stop-color="#08C7F2"/><stop offset="1" stop-color="#1768F5"/></linearGradient><linearGradient id="g" x1="0" x2="1"><stop offset="0" stop-color="#FFD51A"/><stop offset="1" stop-color="#FF8A00"/></linearGradient></defs>
<rect width="1100" height="430" fill="white" fill-opacity="0"/>
<g transform="translate(55 45)"><rect x="55" y="0" width="105" height="300" rx="52" fill="url(#b)"/><rect x="190" y="0" width="105" height="300" rx="52" fill="url(#g)"/><path d="M20 150 C95 80 150 80 225 150 S355 220 405 125" fill="none" stroke="url(#b)" stroke-width="75" stroke-linecap="round"/><path d="M20 150 C95 220 150 220 225 150 S355 80 405 150" fill="none" stroke="url(#g)" stroke-width="75" stroke-linecap="round" opacity=".9"/></g>
<text x="430" y="190" font-family="Arial, sans-serif" font-size="110" font-weight="800" fill="#0F2346">Hunar</text><text x="785" y="190" font-family="Arial, sans-serif" font-size="110" font-weight="800" fill="#1E73F2">Stack</text>
<text x="435" y="275" font-family="Arial, sans-serif" font-size="42" font-weight="500" fill="#0F2346">Learn</text><circle cx="590" cy="258" r="10" fill="#08C7F2"/><text x="625" y="275" font-family="Arial, sans-serif" font-size="42" font-weight="500" fill="#0F2346">Build</text><circle cx="770" cy="258" r="10" fill="#FFBE00"/><text x="805" y="275" font-family="Arial, sans-serif" font-size="42" font-weight="500" fill="#0F2346">Earn</text>
</svg>